<svg width="27" height="30" viewBox="0 0 27 30" fill="none" xmlns="http://www.w3.org/2000/svg">
<path d="M13.0635 0C11.6881 0 10.7337 0.51194 10.029 1.0485C9.3243 1.58507 8.8325 2.09547 7.9936 2.43009C7.696 2.53956 7.4817 2.8418 7.4755 3.1579H0V4.73685H26.0527V3.1579H18.5772C18.571 2.8418 18.3567 2.53959 18.0591 2.43009C17.2141 2.09394 16.696 1.58049 15.999 1.0485C15.302 0.51651 14.3738 0 13.0631 0H13.0635ZM2.3685 5.52633V26.4597C2.3685 28.8219 3.5466 30 5.9335 30H20.144C22.497 30 23.6843 28.8219 23.6843 26.4597V5.52633H2.3685ZM6.7106 10.6579H8.2896V24.8685H6.7106V10.6579ZM12.237 10.6579H13.8159V24.8685H12.237V10.6579ZM17.7633 10.6579H19.3422V24.8685H17.7633V10.6579Z" fill="#1E74AA"/>
</svg>
