<svg width="25" height="28" viewBox="0 0 25 28" fill="none" xmlns="http://www.w3.org/2000/svg">
<path d="M12.2725 0.717285C11.0271 0.717285 10.1628 1.18085 9.52472 1.66672C8.88662 2.15258 8.44125 2.61475 7.68169 2.91775C7.41221 3.01689 7.21813 3.29056 7.21255 3.5768H0.443359V5.00656H24.0344V3.5768H17.2652C17.2596 3.29057 17.0655 3.01691 16.796 2.91775C16.0309 2.61337 15.5618 2.14844 14.9306 1.66672C14.2995 1.18499 13.459 0.717285 12.2722 0.717285H12.2725ZM2.58807 5.72144V24.6768C2.58807 26.8159 3.65481 27.8826 5.81618 27.8826H18.684C20.8147 27.8826 21.8898 26.8159 21.8898 24.6768V5.72144H2.58807ZM6.5199 10.3682H7.94966V23.236H6.5199V10.3682ZM11.5241 10.3682H12.9538V23.236H11.5241V10.3682ZM16.5282 10.3682H17.958V23.236H16.5282V10.3682Z" fill="white"/>
</svg>
