<svg width="36" height="35" viewBox="0 0 36 35" fill="none" xmlns="http://www.w3.org/2000/svg">
<path d="M35.505 3.23941C35.912 2.84621 35.912 2.19381 35.505 1.80061L34.335 0.670712C33.947 0.296612 33.333 0.296612 32.946 0.670712L27.257 6.16261C27.211 6.20761 27.149 6.23281 27.084 6.23281H9.854C9.716 6.23281 9.604 6.12081 9.604 5.98281V1.52901C9.604 0.976712 9.156 0.529012 8.604 0.529012H6.91499C6.36299 0.529012 5.91499 0.976712 5.91499 1.52901V5.99171C5.91499 6.12971 5.80299 6.24171 5.66499 6.24171H1C0.448 6.24171 0 6.68941 0 7.24171V8.80321C0 9.35551 0.448 9.80321 1 9.80321H5.66499C5.80299 9.80321 5.91499 9.91511 5.91499 10.0532V28.2892C5.91499 28.8415 6.36299 29.2892 6.91499 29.2892H25.847C25.985 29.2892 26.097 29.4011 26.097 29.5392V34.0001C26.097 34.5524 26.545 35.0001 27.097 35.0001H28.786C29.338 35.0001 29.786 34.5524 29.786 34.0001V29.5392C29.786 29.4011 29.898 29.2892 30.036 29.2892H34.703C35.255 29.2892 35.703 28.8415 35.703 28.2892V26.7277C35.703 26.1754 35.255 25.7277 34.703 25.7277H30.036C29.898 25.7277 29.786 25.6157 29.786 25.4777V8.86801C29.786 8.80021 29.813 8.73531 29.862 8.68821L35.505 3.23941ZM22.868 9.80281C23.093 9.80281 23.203 10.0765 23.042 10.2327L10.027 22.7981C9.86899 22.9513 9.604 22.8388 9.604 22.6182V10.8028C9.604 10.2506 10.051 9.80281 10.604 9.80281H22.868ZM26.097 24.7236C26.097 25.276 25.649 25.7237 25.097 25.7236L12.833 25.7221C12.608 25.7221 12.497 25.4484 12.659 25.2922L25.673 12.7315C25.832 12.5783 26.097 12.6908 26.097 12.9114V24.7236Z" fill="#1E74AA"/>
</svg>
