<svg width="34" height="32" viewBox="0 0 34 32" fill="none" xmlns="http://www.w3.org/2000/svg">
<path d="M33.0114 2.90645C33.4186 2.51327 33.4185 1.86083 33.0113 1.46768L32.0877 0.575905C31.7002 0.201779 31.086 0.201779 30.6985 0.575906L25.6204 5.47887C25.5738 5.52387 25.5116 5.54902 25.4468 5.54902H9.87789C9.73981 5.54902 9.62789 5.43709 9.62789 5.29902V1.38419C9.62789 0.8319 9.18017 0.384186 8.62789 0.384186H7.28767C6.73539 0.384186 6.28767 0.831901 6.28767 1.38419V5.30709C6.28767 5.44516 6.17574 5.55709 6.03767 5.55709H1.93164C1.37936 5.55709 0.931641 6.0048 0.931641 6.55709V7.78209C0.931641 8.33437 1.37936 8.78209 1.93164 8.78209H6.03767C6.17574 8.78209 6.28767 8.89401 6.28767 9.03209V25.4269C6.28767 25.9791 6.73539 26.4269 7.28767 26.4269H24.3128C24.4509 26.4269 24.5628 26.5388 24.5628 26.6769V30.5982C24.5628 31.1504 25.0105 31.5982 25.5628 31.5982H26.903C27.4553 31.5982 27.903 31.1504 27.903 30.5982V26.6769C27.903 26.5388 28.015 26.4269 28.153 26.4269H32.2607C32.813 26.4269 33.2607 25.9791 33.2607 25.4269V24.2019C33.2607 23.6496 32.813 23.2019 32.2607 23.2019H28.153C28.015 23.2019 27.903 23.0899 27.903 22.9519V7.9453C27.903 7.87748 27.9306 7.81257 27.9794 7.76546L33.0114 2.90645ZM21.5804 8.78176C21.8053 8.78176 21.9158 9.05544 21.7541 9.21161L10.0516 20.5104C9.8929 20.6637 9.62797 20.5512 9.62797 20.3306V9.78176C9.62797 9.22948 10.0757 8.78176 10.628 8.78176H21.5804ZM24.5626 22.1982C24.5626 22.7505 24.1148 23.1983 23.5624 23.1982L12.6102 23.1968C12.3853 23.1968 12.2748 22.9231 12.4366 22.7669L24.1389 11.4723C24.2977 11.3191 24.5626 11.4316 24.5626 11.6522V22.1982Z" fill="white"/>
</svg>
