<svg width="33" height="37" viewBox="0 0 33 37" fill="none" xmlns="http://www.w3.org/2000/svg">
<path d="M21.1636 30C22.4917 30 23.5724 28.9196 23.5724 27.5912V8.07669C23.5724 8.03369 23.5674 7.99169 23.5597 7.95102C23.5594 7.95002 23.5597 7.94902 23.5594 7.94769C23.5477 7.88768 23.526 7.83235 23.4994 7.77935C23.495 7.77035 23.49 7.76201 23.485 7.75335C23.4527 7.69601 23.4144 7.64267 23.367 7.59734L15.964 0.194009C15.9544 0.184341 15.9417 0.179008 15.9314 0.170007C15.9014 0.14334 15.8694 0.119339 15.8347 0.0983376C15.8147 0.086337 15.7947 0.0750032 15.7734 0.0650028C15.7364 0.0476687 15.6974 0.0340014 15.657 0.0236676C15.631 0.0170006 15.6054 0.0126672 15.5787 0.00900038C15.5497 0.00500021 15.521 0 15.491 0H2.40877C1.08071 0 0 1.08038 0 2.40877V27.5912C0 28.9193 1.08071 30 2.40877 30H21.1636ZM16.1594 2.27477L21.2963 7.41166H17.2348C16.6417 7.41166 16.1594 6.92931 16.1594 6.33628V2.27477ZM1.33339 27.5912V2.40877C1.33339 1.81608 1.81575 1.33339 2.40877 1.33339H14.826V6.33628C14.826 7.66434 15.9067 8.74506 17.2348 8.74506H22.239V27.5912C22.239 28.1839 21.7566 28.6666 21.1636 28.6666H2.40877C1.81575 28.6666 1.33339 28.1843 1.33339 27.5912Z" fill="#1E74AA"/>
<path d="M5.44795 23.4701H12.7863C13.1543 23.4701 13.453 23.1714 13.453 22.8034C13.453 22.4354 13.1543 22.1367 12.7863 22.1367H5.44795C5.07993 22.1367 4.78125 22.4354 4.78125 22.8034C4.78125 23.1714 5.07993 23.4701 5.44795 23.4701Z" fill="#1E74AA"/>
<path d="M18.124 22.1367H14.9538C14.5858 22.1367 14.2871 22.4354 14.2871 22.8034C14.2871 23.1714 14.5858 23.4701 14.9538 23.4701H18.124C18.492 23.4701 18.7907 23.1714 18.7907 22.8034C18.7907 22.4354 18.492 22.1367 18.124 22.1367Z" fill="#979797"/>
<path d="M5.44795 18.2094H8.23007C8.59809 18.2094 8.89677 17.9107 8.89677 17.5427C8.89677 17.1747 8.59809 16.876 8.23007 16.876H5.44795C5.07993 16.876 4.78125 17.1747 4.78125 17.5427C4.78125 17.9107 5.07993 18.2094 5.44795 18.2094Z" fill="#1E74AA"/>
<path d="M9.67383 17.5427C9.67383 17.9107 9.97251 18.2094 10.3405 18.2094H18.1235C18.4916 18.2094 18.7902 17.9107 18.7902 17.5427C18.7902 17.1747 18.4916 16.876 18.1235 16.876H10.3405C9.97217 16.876 9.67383 17.1743 9.67383 17.5427Z" fill="#1E74AA"/>
<path d="M5.44795 12.9066H13.6753C14.0433 12.9066 14.342 12.608 14.342 12.2399C14.342 11.8719 14.0433 11.5732 13.6753 11.5732H5.44795C5.07993 11.5732 4.78125 11.8719 4.78125 12.2399C4.78125 12.608 5.07993 12.9066 5.44795 12.9066Z" fill="#1E74AA"/>
<path d="M15.6413 12.9066H18.1251C18.4931 12.9066 18.7918 12.608 18.7918 12.2399C18.7918 11.8719 18.4931 11.5732 18.1251 11.5732H15.6413C15.2733 11.5732 14.9746 11.8719 14.9746 12.2399C14.9746 12.608 15.273 12.9066 15.6413 12.9066Z" fill="#1E74AA"/>
<path d="M5.44795 7.86269H11.7862C12.1542 7.86269 12.4529 7.56401 12.4529 7.19599C12.4529 6.82798 12.1542 6.5293 11.7862 6.5293H5.44795C5.07993 6.5293 4.78125 6.82798 4.78125 7.19599C4.78125 7.56401 5.07993 7.86269 5.44795 7.86269Z" fill="#1E74AA"/>
<path d="M23 36.5C28.2467 36.5 32.5 32.2467 32.5 27C32.5 21.7533 28.2467 17.5 23 17.5C17.7533 17.5 13.5 21.7533 13.5 27C13.5 32.2467 17.7533 36.5 23 36.5Z" fill="white" stroke="#1E74AA"/>
<path d="M28.8047 28.25C28.8047 28.1172 28.6953 28 28.5547 28H27.0547C26.9375 28 26.8594 28.0703 26.8203 28.1797C26.6875 28.4922 26.5938 28.7891 26.4063 29.0937C25.6797 30.2812 24.3906 31 23 31C21.9922 31 21.0156 30.6094 20.2813 29.9219L21.3516 28.8516C21.4453 28.7578 21.5 28.6328 21.5 28.5C21.5 28.2266 21.2734 28 21 28H17.5C17.2266 28 17 28.2266 17 28.5V32C17 32.2734 17.2266 32.5 17.5 32.5C17.6328 32.5 17.7578 32.4453 17.8516 32.3516L18.8594 31.3437C19.9688 32.3984 21.4453 33 22.9688 33C25.8516 33 28.1328 31.0703 28.7969 28.3047C28.8047 28.2891 28.8047 28.2656 28.8047 28.25ZM29 22C29 21.7266 28.7734 21.5 28.5 21.5C28.3672 21.5 28.2422 21.5547 28.1484 21.6484L27.1328 22.6562C26.0234 21.6094 24.5313 21 23 21C20.1172 21 17.8125 22.9219 17.1406 25.6953C17.1406 25.7109 17.1406 25.7344 17.1406 25.75C17.1406 25.8828 17.25 26 17.3906 26H18.9453C19.0625 26 19.1406 25.9297 19.1797 25.8203C19.3125 25.5078 19.4063 25.2109 19.5938 24.9062C20.3203 23.7187 21.6094 23 23 23C24.0078 23 24.9844 23.3828 25.7266 24.0703L24.6484 25.1484C24.5547 25.2422 24.5 25.3672 24.5 25.5C24.5 25.7734 24.7266 26 25 26H28.5C28.7734 26 29 25.7734 29 25.5V22Z" fill="#1E74AA"/>
</svg>
