<svg width="31" height="34" viewBox="0 0 31 34" fill="none" xmlns="http://www.w3.org/2000/svg">
<g clip-path="url(#clip0)">
<path d="M19.6658 27.1653C20.8684 27.1653 21.847 26.187 21.847 24.9842V7.31353C21.847 7.2746 21.8425 7.23656 21.8355 7.19974C21.8352 7.19883 21.8355 7.19793 21.8352 7.19672C21.8247 7.14239 21.8051 7.09228 21.7809 7.04428C21.777 7.03613 21.7725 7.02859 21.7679 7.02074C21.7386 6.96882 21.7039 6.92053 21.6611 6.87947L14.9576 0.175677C14.9488 0.166923 14.9373 0.162094 14.928 0.153944C14.9008 0.129796 14.8718 0.108062 14.8405 0.0890458C14.8223 0.0781791 14.8042 0.0679163 14.7849 0.0588607C14.7514 0.0431645 14.7161 0.0307886 14.6796 0.0214313C14.656 0.0153943 14.6328 0.0114703 14.6086 0.00814995C14.5824 0.00452774 14.5564 0 14.5292 0H2.68312C1.48055 0 0.501953 0.978297 0.501953 2.18117V24.9842C0.501953 26.1867 1.48055 27.1653 2.68312 27.1653H19.6658ZM15.1345 2.05983L19.786 6.71134H16.1082C15.5712 6.71134 15.1345 6.27456 15.1345 5.73757V2.05983ZM1.70936 24.9842V2.18117C1.70936 1.64448 2.14613 1.2074 2.68312 1.2074H13.9271V5.73757C13.9271 6.94015 14.9057 7.91874 16.1082 7.91874H20.6396V24.9842C20.6396 25.5209 20.2028 25.9579 19.6658 25.9579H2.68312C2.14613 25.9579 1.70936 25.5212 1.70936 24.9842Z" fill="white"/>
<path d="M5.43573 21.2521H12.0807C12.4139 21.2521 12.6844 20.9816 12.6844 20.6484C12.6844 20.3151 12.4139 20.0447 12.0807 20.0447H5.43573C5.10249 20.0447 4.83203 20.3151 4.83203 20.6484C4.83203 20.9816 5.10249 21.2521 5.43573 21.2521Z" fill="white"/>
<path d="M16.9138 20.0447H14.0432C13.7099 20.0447 13.4395 20.3151 13.4395 20.6484C13.4395 20.9816 13.7099 21.2521 14.0432 21.2521H16.9138C17.247 21.2521 17.5175 20.9816 17.5175 20.6484C17.5175 20.3151 17.247 20.0447 16.9138 20.0447Z" fill="white"/>
<path d="M5.43573 16.4891H7.95498C8.28822 16.4891 8.55868 16.2187 8.55868 15.8854C8.55868 15.5522 8.28822 15.2817 7.95498 15.2817H5.43573C5.10249 15.2817 4.83203 15.5522 4.83203 15.8854C4.83203 16.2187 5.10249 16.4891 5.43573 16.4891Z" fill="white"/>
<path d="M9.26172 15.8854C9.26172 16.2187 9.53218 16.4891 9.86542 16.4891H16.913C17.2463 16.4891 17.5167 16.2187 17.5167 15.8854C17.5167 15.5522 17.2463 15.2817 16.913 15.2817H9.86542C9.53187 15.2817 9.26172 15.5519 9.26172 15.8854Z" fill="white"/>
<path d="M5.43573 11.6866H12.8857C13.2189 11.6866 13.4894 11.4162 13.4894 11.0829C13.4894 10.7497 13.2189 10.4792 12.8857 10.4792H5.43573C5.10249 10.4792 4.83203 10.7497 4.83203 11.0829C4.83203 11.4162 5.10249 11.6866 5.43573 11.6866Z" fill="white"/>
<path d="M14.6642 11.6866H16.9133C17.2466 11.6866 17.517 11.4162 17.517 11.0829C17.517 10.7497 17.2466 10.4792 16.9133 10.4792H14.6642C14.331 10.4792 14.0605 10.7497 14.0605 11.0829C14.0605 11.4162 14.3307 11.6866 14.6642 11.6866Z" fill="white"/>
<path d="M5.43573 7.12H11.1751C11.5084 7.12 11.7788 6.84954 11.7788 6.5163C11.7788 6.18306 11.5084 5.9126 11.1751 5.9126H5.43573C5.10249 5.9126 4.83203 6.18306 4.83203 6.5163C4.83203 6.84954 5.10249 7.12 5.43573 7.12Z" fill="white"/>
<circle cx="23.502" cy="27" r="9.5" fill="#1E74AA" stroke="#1E74AA"/>
<path d="M27.1327 26.3601C27.1327 26.2273 27.0233 26.1101 26.8827 26.1101H25.3827C25.2655 26.1101 25.1873 26.1804 25.1483 26.2898C25.0155 26.6023 24.9217 26.8992 24.7342 27.2039C24.0077 28.3914 22.7186 29.1101 21.328 29.1101C20.3202 29.1101 19.3436 28.7195 18.6092 28.032L19.6795 26.9617C19.7733 26.8679 19.828 26.7429 19.828 26.6101C19.828 26.3367 19.6014 26.1101 19.328 26.1101H15.828C15.5545 26.1101 15.328 26.3367 15.328 26.6101V30.1101C15.328 30.3835 15.5545 30.6101 15.828 30.6101C15.9608 30.6101 16.0858 30.5554 16.1795 30.4617L17.1873 29.4539C18.2967 30.5085 19.7733 31.1101 21.2967 31.1101C24.1795 31.1101 26.4608 29.1804 27.1248 26.4148C27.1327 26.3992 27.1327 26.3757 27.1327 26.3601ZM27.328 20.1101C27.328 19.8367 27.1014 19.6101 26.828 19.6101C26.6952 19.6101 26.5702 19.6648 26.4764 19.7585L25.4608 20.7664C24.3514 19.7195 22.8592 19.1101 21.328 19.1101C18.4452 19.1101 16.1405 21.032 15.4686 23.8054C15.4686 23.821 15.4686 23.8445 15.4686 23.8601C15.4686 23.9929 15.578 24.1101 15.7186 24.1101H17.2733C17.3905 24.1101 17.4686 24.0398 17.5077 23.9304C17.6405 23.6179 17.7342 23.321 17.9217 23.0164C18.6483 21.8289 19.9373 21.1101 21.328 21.1101C22.3358 21.1101 23.3123 21.4929 24.0545 22.1804L22.9764 23.2585C22.8827 23.3523 22.828 23.4773 22.828 23.6101C22.828 23.8835 23.0545 24.1101 23.328 24.1101H26.828C27.1014 24.1101 27.328 23.8835 27.328 23.6101V20.1101Z" fill="white"/>
</g>
<defs>
<clipPath id="clip0">
<rect width="29.8819" height="33.5039" fill="white" transform="translate(0.501953)"/>
</clipPath>
</defs>
</svg>
