<svg width="30" height="30" viewBox="0 0 30 30" fill="none" xmlns="http://www.w3.org/2000/svg">
<path d="M13.013 10.8182L5.298 3.1034H7.759C8.616 3.1034 9.31 2.409 9.31 1.5517C9.31 0.694401 8.616 0 7.759 0H1.552C0.694002 0 0 0.694401 0 1.5517V7.7586C0 8.6159 0.694002 9.3103 1.552 9.3103C2.409 9.3103 3.103 8.6159 3.103 7.7586V5.2978L10.818 13.0126L10.819 13.0113C11.099 13.2802 11.478 13.4483 11.897 13.4483C12.754 13.4483 13.448 12.7539 13.448 11.8966C13.448 11.4777 13.28 11.0988 13.01 10.8195L13.013 10.8182ZM11.897 16.5517C11.478 16.5517 11.099 16.7198 10.819 16.99L10.818 16.9874L3.103 24.7022V22.2414C3.103 21.3841 2.409 20.6897 1.552 20.6897C0.694002 20.6897 0 21.3841 0 22.2414V28.4483C0 29.3056 0.694002 30 1.552 30H7.759C8.616 30 9.31 29.3056 9.31 28.4483C9.31 27.591 8.616 26.8966 7.759 26.8966H5.298L13.013 19.1818L13.011 19.1805C13.28 18.9012 13.448 18.5223 13.448 18.1034C13.448 17.2461 12.754 16.5517 11.897 16.5517ZM28.448 20.6896C27.591 20.6896 26.897 21.384 26.897 22.2413V24.7021L19.182 16.9873L19.181 16.9886C18.901 16.7197 18.522 16.5516 18.103 16.5516C17.246 16.5516 16.552 17.246 16.552 18.1033C16.552 18.5222 16.72 18.9011 16.99 19.1804L16.987 19.1817L24.702 26.8965H22.241C21.384 26.8965 20.69 27.5909 20.69 28.4482C20.69 29.3055 21.384 29.9999 22.241 29.9999H28.448C29.306 29.9999 30 29.3055 30 28.4482V22.2413C30 21.384 29.306 20.6896 28.448 20.6896ZM28.448 0H22.241C21.384 0 20.69 0.694401 20.69 1.5517C20.69 2.409 21.384 3.1034 22.241 3.1034H24.702L16.987 10.8182L16.989 10.8195C16.72 11.0988 16.552 11.4777 16.552 11.8966C16.552 12.7539 17.246 13.4483 18.103 13.4483C18.522 13.4483 18.901 13.2802 19.181 13.01L19.182 13.0113L26.897 5.2979V7.7586C26.897 8.6159 27.591 9.3104 28.448 9.3104C29.306 9.3104 30 8.6159 30 7.7586V1.5518C30 0.6944 29.306 0 28.448 0Z" fill="#1E74AA"/>
</svg>
