<svg width="28" height="28" viewBox="0 0 28 28" fill="none" xmlns="http://www.w3.org/2000/svg">
<path d="M12.4002 10.5133L5.41443 3.52748H7.64268C8.41899 3.52748 9.04778 2.89869 9.04778 2.12238C9.04778 1.34608 8.41899 0.717285 7.64268 0.717285H2.02229C1.24598 0.717285 0.617189 1.34608 0.617189 2.12238V7.74278C0.617189 8.51908 1.24598 9.14788 2.02229 9.14788C2.79859 9.14788 3.42739 8.51908 3.42739 7.74278V5.51453L10.4132 12.5003L10.4143 12.4991C10.6673 12.7427 11.0103 12.8949 11.3897 12.8949C12.166 12.8949 12.7948 12.2661 12.7948 11.4898C12.7948 11.1104 12.6426 10.7673 12.3979 10.5144L12.4002 10.5133ZM11.3897 15.705C11.0103 15.705 10.6672 15.8572 10.4143 16.1019L10.4132 16.0996L3.42739 23.0854V20.8571C3.42739 20.0808 2.79859 19.452 2.02229 19.452C1.24598 19.452 0.617188 20.0808 0.617188 20.8571V26.4775C0.617188 27.2538 1.24598 27.8826 2.02229 27.8826H7.64268C8.41899 27.8826 9.04778 27.2538 9.04778 26.4775C9.04778 25.7012 8.41899 25.0724 7.64268 25.0724H5.41443L12.4002 18.0866L12.399 18.0855C12.6426 17.8326 12.7948 17.4895 12.7948 17.1101C12.7948 16.3338 12.166 15.705 11.3897 15.705L11.3897 15.705ZM26.3774 19.4519C25.6011 19.4519 24.9723 20.0807 24.9723 20.857V23.0853L17.9866 16.0995L17.9854 16.1007C17.7325 15.8571 17.3894 15.7049 17.01 15.7049C16.2337 15.7049 15.6049 16.3337 15.6049 17.11C15.6049 17.4894 15.7571 17.8325 16.0018 18.0854L15.9995 18.0866L22.9853 25.0723H20.757C19.9807 25.0723 19.3519 25.7011 19.3519 26.4774C19.3519 27.2537 19.9807 27.8825 20.757 27.8825H26.3774C27.1537 27.8825 27.7825 27.2537 27.7825 26.4774V20.857C27.7825 20.0807 27.1537 19.4519 26.3774 19.4519L26.3774 19.4519ZM26.3774 0.717285H20.757C19.9807 0.717285 19.3519 1.34608 19.3519 2.12238C19.3519 2.89869 19.9807 3.52748 20.757 3.52748H22.9853L15.9995 10.5133L16.0007 10.5144C15.7571 10.7674 15.6049 11.1104 15.6049 11.4898C15.6049 12.2661 16.2337 12.8949 17.01 12.8949C17.3894 12.8949 17.7325 12.7427 17.9854 12.498L17.9866 12.4991L24.9723 5.51456V7.74281C24.9723 8.51912 25.6011 9.14791 26.3774 9.14791C27.1537 9.14791 27.7825 8.51912 27.7825 7.74281V2.12242C27.7825 1.34611 27.1537 0.717319 26.3774 0.717319L26.3774 0.717285Z" fill="white"/>
</svg>
