<svg width="26" height="32" viewBox="0 0 26 32" fill="none" xmlns="http://www.w3.org/2000/svg">
<path d="M14.9244 0.488067C14.1661 0.488067 13.4389 0.782225 12.9027 1.30583C12.3665 1.82943 12.0653 2.53959 12.0653 3.28008V3.36035C11.6541 3.14566 11.193 3.03867 10.7269 3.04983C10.2608 3.06098 9.80557 3.1899 9.40566 3.424C9.00575 3.6581 8.67478 3.98941 8.44503 4.38561C8.21528 4.78181 8.09458 5.22938 8.09471 5.6847L8.09471 16.3711C8.08986 16.4373 8.06583 16.5007 8.02542 16.5539C7.98501 16.6072 7.92989 16.6482 7.86652 16.672C7.80316 16.6958 7.73416 16.7014 7.6676 16.6883C7.60105 16.6752 7.53969 16.6439 7.49072 16.598L6.45072 15.4742C5.90841 14.8882 5.23737 14.4297 4.48785 14.133C3.73834 13.8362 2.92977 13.7089 2.12273 13.7606C1.81123 13.7785 1.50927 13.8722 1.24439 14.0333C0.979516 14.1944 0.760145 14.4176 0.60629 14.6827C0.452434 14.9478 0.368989 15.2463 0.363564 15.551C0.358139 15.8557 0.430907 16.1568 0.575232 16.427L5.79669 26.2583C6.50874 27.5604 7.50039 28.697 8.70382 29.5903C9.90724 30.4836 11.294 31.1125 12.7694 31.434C14.1427 31.7548 15.5712 31.7783 16.9548 31.5028C18.3384 31.2272 19.6435 30.6594 20.7785 29.8391C23.609 27.7451 25.5746 24.283 25.6711 21.2257C25.7069 20.081 25.7176 18.6431 25.7176 17.1389C25.7176 13.7327 25.6533 9.97044 25.6247 8.41389C25.6116 7.76332 25.3385 7.14354 24.8636 6.68703C24.3888 6.23052 23.75 5.97349 23.0836 5.97088C22.7004 5.96782 22.3215 6.05018 21.9757 6.21169V5.79289C21.9761 5.31445 21.848 4.84429 21.6042 4.42929C21.3604 4.01429 21.0095 3.66896 20.5864 3.42776C20.1633 3.18656 19.6828 3.05791 19.1928 3.05466C18.7029 3.0514 18.2207 3.17365 17.7943 3.40921V3.28706C17.7952 2.91894 17.7216 2.55426 17.5777 2.21403C17.4337 1.8738 17.2223 1.56472 16.9556 1.30458C16.6889 1.04444 16.3721 0.838374 16.0235 0.698244C15.6749 0.558114 15.3014 0.486685 14.9244 0.488067V0.488067ZM16.354 13.2231C16.354 13.4083 16.4293 13.5858 16.5633 13.7167C16.6974 13.8476 16.8792 13.9211 17.0688 13.9211C17.2583 13.9211 17.4401 13.8476 17.5742 13.7167C17.7082 13.5858 17.7835 13.4083 17.7835 13.2231V5.79289C17.7835 5.43653 17.9285 5.09477 18.1865 4.84278C18.4446 4.5908 18.7946 4.44923 19.1595 4.44923C19.5244 4.44923 19.8744 4.5908 20.1324 4.84278C20.3905 5.09477 20.5354 5.43653 20.5354 5.79289V15.1601C20.5354 15.3452 20.6107 15.5228 20.7448 15.6537C20.8788 15.7846 21.0606 15.8581 21.2502 15.8581C21.4398 15.8581 21.6216 15.7846 21.7556 15.6537C21.8897 15.5228 21.965 15.3452 21.965 15.1601V8.43832C21.9781 8.16125 22.0994 7.89959 22.3038 7.70708C22.5083 7.51457 22.7805 7.40581 23.0645 7.40313C23.3486 7.40045 23.6229 7.50405 23.8311 7.69267C24.0394 7.88129 24.1658 8.14061 24.1844 8.41738C24.2237 10.6545 24.3416 17.46 24.2308 21.1664C24.1486 23.8223 22.4117 26.8551 19.9064 28.7083C18.9383 29.4045 17.8261 29.8857 16.6476 30.1184C15.4692 30.3511 14.2529 30.3296 13.0839 30.0555C11.8125 29.7811 10.6167 29.2422 9.57811 28.4755C8.53947 27.7088 7.68242 26.7323 7.06542 25.6127L1.84397 15.7813C1.81072 15.7183 1.79396 15.6483 1.79517 15.5774C1.79639 15.5066 1.81555 15.4371 1.85094 15.3753C1.88633 15.3134 1.93685 15.2611 1.99799 15.2229C2.05914 15.1848 2.129 15.162 2.20135 15.1566C2.79602 15.1188 3.3917 15.2135 3.94336 15.4336C4.49502 15.6537 4.98823 15.9934 5.38569 16.427L6.4257 17.5508C6.58798 17.7232 6.78416 17.8621 7.00255 17.9589C7.22095 18.0558 7.45707 18.1087 7.69686 18.1146C7.93665 18.1205 8.1752 18.0791 8.39828 17.9931C8.62136 17.907 8.82441 17.7779 8.99533 17.6136C9.16084 17.4532 9.29216 17.2623 9.38172 17.0521C9.47128 16.8418 9.5173 16.6163 9.51712 16.3886V5.69168C9.51712 5.36262 9.65098 5.04705 9.88924 4.81437C10.1275 4.58169 10.4507 4.45098 10.7876 4.45098C11.1246 4.45098 11.4478 4.58169 11.686 4.81437C11.9243 5.04705 12.0582 5.36262 12.0582 5.69168V13.8967C12.0582 14.0818 12.1335 14.2594 12.2675 14.3903C12.4016 14.5212 12.5834 14.5947 12.7729 14.5947C12.9625 14.5947 13.1443 14.5212 13.2784 14.3903C13.4124 14.2594 13.4877 14.0818 13.4877 13.8967V3.28706C13.4877 2.91681 13.6383 2.56174 13.9064 2.29993C14.1745 2.03813 14.5381 1.89105 14.9173 1.89105C15.2964 1.89105 15.66 2.03813 15.9281 2.29993C16.1962 2.56174 16.3468 2.91681 16.3468 3.28706L16.354 13.2231Z" fill="white" stroke="white" stroke-width="0.51" stroke-miterlimit="10"/>
</svg>
