<svg width="30" height="36" viewBox="0 0 30 36" fill="none" xmlns="http://www.w3.org/2000/svg">
<path d="M17.081 0.538595C16.243 0.538595 15.44 0.863395 14.848 1.4417C14.256 2.0199 13.923 2.8042 13.923 3.6219V3.7106C13.469 3.4735 12.96 3.3553 12.445 3.3677C11.93 3.38 11.428 3.5223 10.986 3.7809C10.544 4.0394 10.179 4.40529 9.92502 4.84279C9.67102 5.28039 9.53802 5.77459 9.53802 6.27749V18.079C9.53302 18.152 9.50601 18.2221 9.46201 18.2809C9.41701 18.3397 9.35602 18.385 9.28602 18.4112C9.21602 18.4375 9.14002 18.4438 9.06702 18.4293C8.99302 18.4149 8.92502 18.3802 8.87102 18.3295L7.72301 17.0885C7.12401 16.4414 6.38302 15.935 5.55502 15.6073C4.72722 15.2796 3.83432 15.139 2.94302 15.1961C2.59902 15.2158 2.26561 15.3194 1.97311 15.4972C1.68051 15.6751 1.43832 15.9217 1.26842 16.2144C1.09852 16.5072 1.00631 16.8368 1.00031 17.1733C0.994315 17.5098 1.07472 17.8423 1.23412 18.1407L7.00002 28.9979C7.78702 30.4359 8.88201 31.6911 10.211 32.6776C11.54 33.6641 13.071 34.3586 14.701 34.7137C16.217 35.068 17.795 35.0939 19.323 34.7896C20.851 34.4853 22.292 33.8583 23.545 32.9523C26.671 30.6398 28.842 26.8165 28.949 23.4402C28.988 22.176 29 20.5881 29 18.9269C29 15.1652 28.929 11.0104 28.897 9.2915C28.883 8.573 28.581 7.8885 28.057 7.3844C27.533 6.8802 26.827 6.59639 26.091 6.59349C25.668 6.59009 25.249 6.6811 24.868 6.8595V6.397C24.868 5.8686 24.727 5.3494 24.457 4.8911C24.188 4.4328 23.801 4.0514 23.333 3.785C22.866 3.5187 22.335 3.3766 21.794 3.373C21.253 3.3694 20.721 3.50439 20.25 3.76449V3.6296C20.251 3.2231 20.17 2.8204 20.011 2.4446C19.852 2.0689 19.618 1.7276 19.324 1.4403C19.029 1.153 18.679 0.925396 18.294 0.770696C17.909 0.615896 17.497 0.537095 17.081 0.538595ZM18.659 14.6025C18.659 14.807 18.742 15.003 18.891 15.1476C19.039 15.2922 19.239 15.3734 19.449 15.3734C19.658 15.3734 19.859 15.2922 20.007 15.1476C20.155 15.003 20.238 14.807 20.238 14.6025V6.397C20.238 6.0034 20.398 5.626 20.683 5.3477C20.968 5.0694 21.355 4.9131 21.758 4.9131C22.161 4.9131 22.547 5.0694 22.832 5.3477C23.117 5.626 23.277 6.0034 23.277 6.397V16.7416C23.277 16.946 23.36 17.1421 23.508 17.2867C23.656 17.4312 23.857 17.5124 24.066 17.5124C24.276 17.5124 24.477 17.4312 24.625 17.2867C24.773 17.1421 24.856 16.946 24.856 16.7416V9.3184C24.87 9.0124 25.004 8.72349 25.23 8.51089C25.456 8.29829 25.756 8.1782 26.07 8.1752C26.384 8.1723 26.687 8.2867 26.917 8.495C27.147 8.7033 27.286 8.9897 27.307 9.2953C27.35 11.7658 27.48 19.2815 27.358 23.3747C27.267 26.3077 25.349 29.657 22.582 31.7036C21.513 32.4724 20.285 33.0038 18.984 33.2608C17.682 33.5178 16.339 33.494 15.048 33.1913C13.644 32.8883 12.323 32.2932 11.176 31.4465C10.029 30.5997 9.08302 29.5214 8.40202 28.2849L2.63522 17.4277C2.59852 17.3581 2.58001 17.2807 2.58131 17.2025C2.58271 17.1243 2.60381 17.0476 2.64291 16.9792C2.68201 16.9109 2.73781 16.8531 2.80531 16.811C2.87281 16.7689 2.95001 16.7437 3.02991 16.7378C3.68661 16.696 4.34441 16.8006 4.95371 17.0437C5.56301 17.2867 6.10801 17.6619 6.54601 18.1407L7.69501 19.3817C7.87401 19.5722 8.09102 19.7255 8.33202 19.8325C8.57302 19.9395 8.83401 19.998 9.09901 20.0044C9.36401 20.0109 9.62702 19.9652 9.87302 19.8702C10.12 19.7751 10.344 19.6326 10.533 19.4511C10.716 19.2739 10.861 19.0632 10.96 18.831C11.058 18.5988 11.109 18.3498 11.109 18.0983V6.2852C11.109 5.9218 11.257 5.5733 11.52 5.3163C11.783 5.0594 12.14 4.915 12.512 4.915C12.884 4.915 13.241 5.0594 13.504 5.3163C13.767 5.5733 13.915 5.9218 13.915 6.2852V15.3464C13.915 15.5508 13.998 15.7469 14.146 15.8915C14.294 16.036 14.495 16.1172 14.705 16.1172C14.914 16.1172 15.115 16.036 15.263 15.8915C15.411 15.7469 15.494 15.5508 15.494 15.3464V3.6296C15.494 3.2208 15.66 2.8286 15.956 2.5395C16.252 2.2504 16.654 2.088 17.073 2.088C17.491 2.088 17.893 2.2504 18.189 2.5395C18.485 2.8286 18.651 3.2208 18.651 3.6296L18.659 14.6025Z" fill="#1E74AA" stroke="#1E74AA" stroke-width="0.51" stroke-miterlimit="10"/>
</svg>
