<svg width="28" height="29" viewBox="0 0 28 29" fill="none" xmlns="http://www.w3.org/2000/svg">
<path d="M27.4093 17.2406C27.4093 16.937 27.1593 16.6692 26.8379 16.6692H23.4093C23.1414 16.6692 22.9629 16.8299 22.8736 17.0799C22.57 17.7942 22.3557 18.4727 21.9272 19.1692C20.2664 21.8834 17.32 23.5263 14.1414 23.5263C11.8379 23.5263 9.60572 22.6334 7.92715 21.062L10.3736 18.6156C10.5879 18.4013 10.7129 18.1156 10.7129 17.812C10.7129 17.187 10.195 16.6692 9.57001 16.6692H1.57001C0.945008 16.6692 0.427151 17.187 0.427151 17.812V25.812C0.427151 26.437 0.945008 26.9549 1.57001 26.9549C1.87358 26.9549 2.15929 26.8299 2.37358 26.6156L4.67715 24.312C7.21287 26.7227 10.5879 28.0977 14.07 28.0977C20.6593 28.0977 25.8736 23.687 27.3914 17.3656C27.4093 17.3299 27.4093 17.2763 27.4093 17.2406ZM27.8557 2.95487C27.8557 2.32987 27.3379 1.81201 26.7129 1.81201C26.4093 1.81201 26.1236 1.93701 25.9093 2.1513L23.5879 4.45487C21.0522 2.06201 17.6414 0.669153 14.1414 0.669153C7.55215 0.669153 2.28429 5.06201 0.748579 11.4013C0.748579 11.437 0.748579 11.4906 0.748579 11.5263C0.748579 11.8299 0.998579 12.0977 1.32001 12.0977H4.87358C5.14144 12.0977 5.32001 11.937 5.40929 11.687C5.71287 10.9727 5.92715 10.2942 6.35572 9.59772C8.01644 6.88344 10.9629 5.24058 14.1414 5.24058C16.445 5.24058 18.6772 6.11558 20.3736 7.68701L17.9093 10.1513C17.695 10.3656 17.57 10.6513 17.57 10.9549C17.57 11.5799 18.0879 12.0977 18.7129 12.0977H26.7129C27.3379 12.0977 27.8557 11.5799 27.8557 10.9549V2.95487Z" fill="white"/>
</svg>
