<svg width="28" height="29" viewBox="0 0 28 29" fill="none" xmlns="http://www.w3.org/2000/svg">
<path d="M27.2632 17.4287C27.2632 17.1251 27.0132 16.8572 26.6922 16.8572H23.2632C22.9962 16.8572 22.8172 17.018 22.7282 17.268C22.4242 17.9822 22.2102 18.6608 21.7812 19.3572C20.1212 22.0715 17.1742 23.7144 13.9962 23.7144C11.6922 23.7144 9.46025 22.8215 7.78125 21.2501L10.2282 18.8037C10.4422 18.5894 10.5672 18.3037 10.5672 18.0001C10.5672 17.3751 10.0492 16.8572 9.42425 16.8572H1.42425C0.799255 16.8572 0.28125 17.3751 0.28125 18.0001V26.0001C0.28125 26.6251 0.799255 27.143 1.42425 27.143C1.72825 27.143 2.01324 27.018 2.22824 26.8037L4.53125 24.5001C7.06725 26.9108 10.4422 28.2858 13.9242 28.2858C20.5132 28.2858 25.7282 23.8751 27.2462 17.5537C27.2632 17.518 27.2632 17.4644 27.2632 17.4287ZM27.7102 3.14298C27.7102 2.51798 27.1922 2.00008 26.5672 2.00008C26.2632 2.00008 25.9782 2.12508 25.7632 2.33938L23.4422 4.64298C20.9062 2.25008 17.4962 0.857178 13.9962 0.857178C7.40621 0.857178 2.13824 5.25008 0.603241 11.5894C0.603241 11.6251 0.603241 11.6787 0.603241 11.7144C0.603241 12.018 0.853255 12.2858 1.17425 12.2858H4.72824C4.99624 12.2858 5.17424 12.1251 5.26324 11.8751C5.56724 11.1608 5.78123 10.4822 6.21023 9.78578C7.87123 7.07148 10.8172 5.42868 13.9962 5.42868C16.2992 5.42868 18.5312 6.30368 20.2282 7.87508L17.7632 10.3394C17.5492 10.5537 17.4242 10.8394 17.4242 11.143C17.4242 11.768 17.9422 12.2858 18.5672 12.2858H26.5672C27.1922 12.2858 27.7102 11.768 27.7102 11.143V3.14298Z" fill="#1E74AA"/>
</svg>
