<svg width="28" height="29" viewBox="0 0 28 29" fill="none" xmlns="http://www.w3.org/2000/svg">
<path d="M27.263 17.4287C27.263 17.1251 27.013 16.8572 26.692 16.8572H23.263C22.996 16.8572 22.817 17.018 22.728 17.268C22.424 17.9822 22.21 18.6608 21.781 19.3572C20.121 22.0715 17.174 23.7144 13.996 23.7144C11.692 23.7144 9.46001 22.8215 7.78101 21.2501L10.228 18.8037C10.442 18.5894 10.567 18.3037 10.567 18.0001C10.567 17.3751 10.049 16.8572 9.42401 16.8572H1.42401C0.799011 16.8572 0.281006 17.3751 0.281006 18.0001V26.0001C0.281006 26.6251 0.799011 27.143 1.42401 27.143C1.72801 27.143 2.013 27.018 2.228 26.8037L4.53101 24.5001C7.06701 26.9108 10.442 28.2858 13.924 28.2858C20.513 28.2858 25.728 23.8751 27.246 17.5537C27.263 17.518 27.263 17.4644 27.263 17.4287ZM27.71 3.14298C27.71 2.51798 27.192 2.00008 26.567 2.00008C26.263 2.00008 25.978 2.12508 25.763 2.33938L23.442 4.64298C20.906 2.25008 17.496 0.857178 13.996 0.857178C7.40597 0.857178 2.138 5.25008 0.602997 11.5894C0.602997 11.6251 0.602997 11.6787 0.602997 11.7144C0.602997 12.018 0.853011 12.2858 1.17401 12.2858H4.728C4.996 12.2858 5.174 12.1251 5.263 11.8751C5.567 11.1608 5.78099 10.4822 6.20999 9.78578C7.87099 7.07148 10.817 5.42868 13.996 5.42868C16.299 5.42868 18.531 6.30368 20.228 7.87508L17.763 10.3394C17.549 10.5537 17.424 10.8394 17.424 11.143C17.424 11.768 17.942 12.2858 18.567 12.2858H26.567C27.192 12.2858 27.71 11.768 27.71 11.143V3.14298Z" fill="#979797"/>
</svg>
