<svg width="49" height="39" viewBox="0 0 49 39" fill="none" xmlns="http://www.w3.org/2000/svg">
<path fill-rule="evenodd" clip-rule="evenodd" d="M34.132 9.73331L14.65 9.60251L14.518 28.9143L34 29.0451L34.132 9.73331ZM32.426 11.4012L16.333 11.2932L16.258 22.2085L32.352 22.3166L32.426 11.4012Z" fill="#979797"/>
<path d="M21.385 2C21.385 2 27.616 2 32.462 2C37.308 2 42.846 3.3725 42.846 12.2941C42.846 21.2157 42.846 25.3333 42.846 25.3333M42.846 25.3333L38.692 21.2157M42.846 25.3333L47 21.2157" stroke="#979797" stroke-width="3"/>
<path d="M27.615 37C27.615 37 21.384 37 16.538 37C11.692 37 6.15401 35.6275 6.15401 26.7059C6.15401 17.7843 6.15401 13.6667 6.15401 13.6667M6.15401 13.6667L10.308 17.7843M6.15401 13.6667L2 17.7843" stroke="#979797" stroke-width="3"/>
</svg>
