<svg width="44" height="36" viewBox="0 0 44 36" fill="none" xmlns="http://www.w3.org/2000/svg">
<path fill-rule="evenodd" clip-rule="evenodd" d="M30.7501 8.91067L13.1094 8.79224L12.9899 26.2793L30.6307 26.3977L30.7501 8.91067ZM29.2049 10.4221L14.6321 10.3242L14.5645 20.2082L29.1373 20.3061L29.2049 10.4221Z" fill="white"/>
<path d="M19.2051 1.90967C19.2051 1.90967 24.8471 1.90967 29.2354 1.90967C33.6236 1.90967 38.6387 3.15253 38.6387 11.2311C38.6387 19.3097 38.6387 23.0383 38.6387 23.0383M38.6387 23.0383L34.8774 19.3097M38.6387 23.0383L42.4001 19.3097" stroke="white" stroke-width="3"/>
<path d="M24.8496 33.6047C24.8496 33.6047 19.2076 33.6047 14.8193 33.6047C10.4311 33.6047 5.41594 32.3619 5.41594 24.2833C5.41594 16.2047 5.41594 12.4761 5.41594 12.4761M5.41594 12.4761L9.1773 16.2047M5.41594 12.4761L1.65459 16.2047" stroke="white" stroke-width="3"/>
</svg>
