<svg width="29" height="29" viewBox="0 0 29 29" fill="none" xmlns="http://www.w3.org/2000/svg">
<path d="M28.3948 14.383C28.3948 6.82938 22.2341 0.668665 14.6805 0.668665C11.1626 0.668665 7.75193 2.07938 5.23407 4.45438L2.91264 2.15081C2.59121 1.81152 2.09121 1.72224 1.6805 1.90081C1.25193 2.07938 0.966213 2.49009 0.966213 2.95438V10.9544C0.966213 11.5794 1.48407 12.0972 2.10907 12.0972H10.1091C10.5734 12.0972 10.9841 11.8115 11.1626 11.383C11.3412 10.9722 11.2519 10.4722 10.9126 10.1508L8.46621 7.68652C10.1269 6.13295 12.3412 5.24009 14.6805 5.24009C19.7162 5.24009 23.8234 9.34724 23.8234 14.383C23.8234 19.4187 19.7162 23.5258 14.6805 23.5258C11.8412 23.5258 9.21621 22.2401 7.46621 19.9722C7.37693 19.8472 7.21621 19.7758 7.0555 19.758C6.89478 19.758 6.73407 19.8115 6.60907 19.9187L4.16264 22.383C3.96621 22.5794 3.94836 22.9187 4.12693 23.1508C6.73407 26.2937 10.5912 28.0972 14.6805 28.0972C22.2341 28.0972 28.3948 21.9365 28.3948 14.383Z" fill="white"/>
</svg>
