<svg width="28" height="28" viewBox="0 0 28 28" fill="none" xmlns="http://www.w3.org/2000/svg">
<path d="M27.429 13.7143C27.429 6.1608 21.268 0 13.715 0C10.197 0 6.78601 1.4108 4.26801 3.7858L1.94699 1.4822C1.62499 1.1429 1.125 1.0536 0.714996 1.2322C0.285996 1.4108 0 1.8215 0 2.2858V10.2858C0 10.9108 0.518005 11.4286 1.14301 11.4286H9.14301C9.60701 11.4286 10.018 11.1429 10.197 10.7143C10.375 10.3036 10.286 9.8036 9.94699 9.4822L7.5 7.0179C9.161 5.4643 11.375 4.5715 13.715 4.5715C18.75 4.5715 22.857 8.6786 22.857 13.7143C22.857 18.75 18.75 22.8572 13.715 22.8572C10.875 22.8572 8.25 21.5715 6.5 19.3036C6.411 19.1786 6.25 19.1072 6.09 19.0893C5.929 19.0893 5.76801 19.1429 5.64301 19.25L3.19699 21.7143C2.99999 21.9108 2.98198 22.25 3.16098 22.4822C5.76798 25.625 9.625 27.4286 13.715 27.4286C21.268 27.4286 27.429 21.2679 27.429 13.7143Z" fill="#1E74AA"/>
</svg>
