<svg width="41" height="31" viewBox="0 0 41 31" fill="none" xmlns="http://www.w3.org/2000/svg">
<path d="M36 2V12" stroke="#1E74AA" stroke-width="2"/>
<path d="M41 7H31" stroke="#1E74AA" stroke-width="2"/>
<path d="M41 20H31" stroke="#1E74AA" stroke-width="2"/>
<path d="M20.7121 13.4287C20.7121 17.8394 17.1228 21.4287 12.7121 21.4287C8.30132 21.4287 4.71212 17.8394 4.71212 13.4287C4.71212 9.01798 8.30132 5.42868 12.7121 5.42868C17.1228 5.42868 20.7121 9.01798 20.7121 13.4287ZM29.8549 28.2858C29.8549 27.6787 29.6049 27.0894 29.1942 26.6787L23.0692 20.5537C24.5156 18.4644 25.2835 15.9644 25.2835 13.4287C25.2835 6.48218 19.6585 0.857178 12.7121 0.857178C5.76562 0.857178 0.140625 6.48218 0.140625 13.4287C0.140625 20.3751 5.76562 26.0001 12.7121 26.0001C15.2478 26.0001 17.7478 25.2322 19.8371 23.7858L25.9621 29.893C26.3728 30.3215 26.9621 30.5715 27.5692 30.5715C28.8192 30.5715 29.8549 29.5358 29.8549 28.2858Z" fill="#1E74AA"/>
</svg>
