<svg width="40" height="35" viewBox="0 0 40 35" fill="none" xmlns="http://www.w3.org/2000/svg">
<line x1="34.6992" y1="3.52979" x2="34.6992" y2="12.5849" stroke="white" stroke-width="2"/>
<line x1="39.1328" y1="8.15186" x2="30.0777" y2="8.15186" stroke="white" stroke-width="2"/>
<line x1="39.127" y1="19.9211" x2="30.0718" y2="19.9211" stroke="white" stroke-width="2"/>
<path d="M21.2947 15.2396C21.2947 19.6503 17.7054 23.2396 13.2947 23.2396C8.88401 23.2396 5.29472 19.6503 5.29472 15.2396C5.29472 10.8289 8.88401 7.2396 13.2947 7.2396C17.7054 7.2396 21.2947 10.8289 21.2947 15.2396ZM30.4376 30.0967C30.4376 29.4896 30.1876 28.9003 29.7769 28.4896L23.6519 22.3646C25.0983 20.2753 25.8662 17.7753 25.8662 15.2396C25.8662 8.29318 20.2412 2.66818 13.2947 2.66818C6.34829 2.66818 0.723292 8.29318 0.723292 15.2396C0.723292 22.186 6.34829 27.811 13.2947 27.811C15.8304 27.811 18.3304 27.0432 20.4197 25.5967L26.5447 31.7039C26.9554 32.1325 27.5447 32.3825 28.1519 32.3825C29.4019 32.3825 30.4376 31.3467 30.4376 30.0967Z" fill="white"/>
</svg>
